<svg width="1230" height="1557" viewBox="0 0 1230 1557" fill="none" xmlns="http://www.w3.org/2000/svg">
<path d="M239.306 587.645C239.306 587.645 243.821 589.189 252.174 592.395C260.532 595.585 272.685 600.522 288.021 607.099C318.69 620.239 361.771 640.823 411.294 669.326C436.032 683.605 462.296 699.997 489.143 718.665C515.995 737.33 543.357 758.34 570.465 781.456C597.514 804.629 624.079 830.204 648.95 858.083C673.826 885.946 696.987 916.133 717.262 948.149L724.9 960.134L732.541 972.33C737.687 980.407 742.916 988.411 748.24 996.323C758.857 1012.18 769.796 1027.71 780.937 1042.92C803.257 1073.29 826.391 1102.36 850.423 1129.1C862.466 1142.44 874.512 1155.4 887.056 1167.36C899.554 1179.35 912.208 1190.66 925.056 1201.05C937.982 1211.34 951.09 1220.71 964.354 1228.91C967.722 1230.87 971.065 1232.81 974.375 1234.74C977.706 1236.64 981.155 1238.26 984.491 1240.01C987.802 1241.81 991.252 1243.25 994.651 1244.72C997.998 1246.15 1001.31 1247.57 1004.59 1248.98C1017.36 1254.78 1028.71 1262.44 1039.01 1270.17C1049.42 1277.85 1058.25 1286.44 1066.46 1294.56C1070.31 1298.86 1074.16 1302.92 1077.67 1307.03C1081.05 1311.25 1084.31 1315.32 1087.44 1319.22C1090.32 1323.32 1093.09 1327.25 1095.73 1331.01C1096.39 1331.96 1097.05 1332.88 1097.69 1333.8C1098.28 1334.76 1098.86 1335.7 1099.43 1336.64C1100.57 1338.51 1101.69 1340.33 1102.77 1342.1C1104.89 1345.69 1107.13 1348.95 1108.81 1352.26C1110.55 1355.53 1112.18 1358.61 1113.7 1361.47C1115.19 1364.34 1116.68 1366.95 1117.85 1369.43C1118.98 1371.93 1120 1374.21 1120.92 1376.24C1124.59 1384.4 1126.55 1388.75 1126.55 1388.75C1126.55 1388.75 1124.75 1384.33 1121.38 1376.04C1120.54 1373.96 1119.6 1371.65 1118.56 1369.1C1117.48 1366.57 1116.08 1363.9 1114.69 1360.97C1113.27 1358.04 1111.74 1354.9 1110.12 1351.55C1108.52 1348.18 1106.36 1344.84 1104.33 1341.18C1103.29 1339.36 1102.22 1337.5 1101.12 1335.59C1100.57 1334.63 1100.01 1333.66 1099.45 1332.68C1098.82 1331.74 1098.19 1330.78 1097.55 1329.82C1094.99 1325.96 1092.31 1321.92 1089.52 1317.71C1086.47 1313.67 1083.29 1309.48 1079.99 1305.12C1076.56 1300.87 1072.78 1296.65 1068.99 1292.18C1053.07 1275.1 1033.08 1257.08 1006.78 1244.21C1003.5 1242.74 1000.19 1241.25 996.852 1239.75C993.569 1238.27 990.237 1236.81 987.028 1235C983.797 1233.23 980.461 1231.6 977.233 1229.69C974.023 1227.74 970.786 1225.79 967.52 1223.81C954.658 1215.56 941.925 1206.13 929.362 1195.78C904.385 1174.86 880.112 1150.35 856.459 1123.72C832.791 1097.09 809.976 1068.09 787.969 1037.79C776.99 1022.62 766.197 1007.12 755.743 991.322C750.498 983.435 745.354 975.457 740.294 967.429L732.815 955.333L725.117 943.142C704.366 910.777 680.732 880.326 655.416 852.282C630.1 824.22 603.122 798.539 575.698 775.309C548.323 752.002 520.282 731.419 492.962 713.079C465.631 694.74 438.956 678.702 413.868 664.778C388.805 650.8 365.223 639.116 344.084 629.327C322.949 619.528 304.237 611.623 288.712 605.43C273.197 599.205 260.803 594.843 252.343 591.923C243.877 589.019 239.306 587.645 239.306 587.645" fill="#22421E" fill-opacity="0.07"/>
<path d="M588.562 818.729C588.562 818.729 538.174 814.564 443.966 845.276C443.966 845.276 515.595 849.032 588.562 818.729Z" fill="#1B2919" fill-opacity="0.07"/>
<path d="M612.427 813.87L470.942 841.7Z" fill="#1B2919" fill-opacity="0.07"/>
<path d="M620.718 850.778C620.718 850.778 570.53 844.684 475.211 871.756C475.211 871.756 546.643 878.259 620.718 850.778" fill="#1B2919" fill-opacity="0.07"/>
<path d="M644.754 846.842L502.306 869.216Z" fill="#1B2919" fill-opacity="0.07"/>
<path d="M649.383 883.775C649.383 883.775 593.142 876.951 486.33 907.284C486.33 907.284 566.374 914.572 649.383 883.775Z" fill="#1B2919" fill-opacity="0.07"/>
<path d="M676.318 879.366L516.691 904.442Z" fill="#1B2919" fill-opacity="0.07"/>
<path d="M674.445 915.424C674.445 915.424 618.641 905.648 510.379 930.316C510.379 930.316 589.932 941.806 674.445 915.424Z" fill="#1B2919" fill-opacity="0.07"/>
<path d="M701.577 912.439L540.848 929.079Z" fill="#1B2919" fill-opacity="0.07"/>
<path d="M693.829 951.99C693.829 951.99 638.025 942.215 529.762 966.883C529.762 966.883 609.312 978.374 693.829 951.99" fill="#1B2919" fill-opacity="0.07"/>
<path d="M720.955 949.005L560.23 965.645Z" fill="#1B2919" fill-opacity="0.07"/>
<path d="M717.047 985.236C717.047 985.236 661.242 975.46 552.98 1000.13C552.98 1000.13 632.532 1011.62 717.047 985.236" fill="#1B2919" fill-opacity="0.07"/>
<path d="M744.174 982.249L583.447 998.889Z" fill="#1B2919" fill-opacity="0.07"/>
<path d="M738.149 1020.31C738.149 1020.31 682.343 1010.53 574.083 1035.2C574.083 1035.2 653.635 1046.69 738.149 1020.31Z" fill="#1B2919" fill-opacity="0.07"/>
<path d="M765.278 1017.33L604.554 1033.96Z" fill="#1B2919" fill-opacity="0.07"/>
<path d="M758.811 1046.45C758.811 1046.45 702.453 1040.66 596.216 1072.94C596.216 1072.94 676.381 1078.76 758.811 1046.45" fill="#1B2919" fill-opacity="0.07"/>
<path d="M785.662 1041.55L626.519 1069.54Z" fill="#1B2919" fill-opacity="0.07"/>
<path d="M780.703 1075.48C780.703 1075.48 724.351 1069.69 618.109 1101.97C618.109 1101.97 698.274 1107.79 780.703 1075.48" fill="#1B2919" fill-opacity="0.07"/>
<path d="M807.553 1070.58L648.412 1098.58Z" fill="#1B2919" fill-opacity="0.07"/>
<path d="M797.123 1098.43C797.123 1098.43 740.535 1095.8 636.269 1133.99C636.269 1133.99 716.637 1135.31 797.123 1098.43" fill="#1B2919" fill-opacity="0.07"/>
<path d="M823.659 1092.03L666.337 1128.9Z" fill="#1B2919" fill-opacity="0.07"/>
<path d="M817.209 1123.9C817.209 1123.9 763.188 1125.04 666.413 1168.07C666.413 1168.07 742.978 1164.17 817.209 1123.9Z" fill="#1B2919" fill-opacity="0.07"/>
<path d="M842.049 1116.11L694.698 1161.29Z" fill="#1B2919" fill-opacity="0.07"/>
<path d="M839.568 1146.43C839.568 1146.43 785.693 1150.59 691.481 1198.97C691.481 1198.97 767.707 1190.79 839.568 1146.43" fill="#1B2919" fill-opacity="0.07"/>
<path d="M863.932 1137.27L719.341 1190.62Z" fill="#1B2919" fill-opacity="0.07"/>
<path d="M866.257 1168.66C866.257 1168.66 822.725 1175.9 749.556 1222.01C749.556 1222.01 810.974 1209.89 866.257 1168.66" fill="#1B2919" fill-opacity="0.07"/>
<path d="M885.419 1159.46L771.619 1213.22Z" fill="#1B2919" fill-opacity="0.07"/>
<path d="M890.877 1186.37C890.877 1186.37 847.347 1193.61 774.175 1239.71C774.175 1239.71 835.596 1227.59 890.877 1186.37" fill="#1B2919" fill-opacity="0.07"/>
<path d="M910.04 1177.16L796.24 1230.92Z" fill="#1B2919" fill-opacity="0.07"/>
<path d="M910.844 1206.16C910.844 1206.16 867.317 1213.4 794.14 1259.51C794.14 1259.51 855.56 1247.39 910.844 1206.16Z" fill="#1B2919" fill-opacity="0.07"/>
<path d="M930.007 1196.96L816.207 1250.72Z" fill="#1B2919" fill-opacity="0.07"/>
<path d="M558.047 792.16C558.047 792.16 508.016 784.87 412.081 809.655C412.081 809.655 483.335 817.864 558.047 792.16Z" fill="#1B2919" fill-opacity="0.07"/>
<path d="M582.172 788.8L439.229 807.768Z" fill="#1B2919" fill-opacity="0.07"/>
<path d="M528.303 761.941C528.303 761.941 478.27 754.653 382.336 779.439C382.336 779.439 453.591 787.645 528.303 761.941Z" fill="#1B2919" fill-opacity="0.07"/>
<path d="M552.423 758.583L409.481 777.551Z" fill="#1B2919" fill-opacity="0.07"/>
<path d="M498.437 738.945C498.437 738.945 448.405 731.656 352.469 756.442C352.469 756.442 423.725 764.649 498.437 738.945Z" fill="#1B2919" fill-opacity="0.07"/>
<path d="M522.555 735.586L379.614 754.551Z" fill="#1B2919" fill-opacity="0.07"/>
<path d="M461.879 711.931C461.879 711.931 418.997 705.679 336.77 726.925C336.77 726.925 397.843 733.96 461.879 711.931" fill="#1B2919" fill-opacity="0.07"/>
<path d="M482.556 709.047L360.042 725.304Z" fill="#1B2919" fill-opacity="0.07"/>
<path d="M430.99 689.645C430.99 689.645 388.11 683.394 305.884 704.639C305.884 704.639 366.953 711.677 430.99 689.645" fill="#1B2919" fill-opacity="0.07"/>
<path d="M451.666 686.763L329.151 703.019Z" fill="#1B2919" fill-opacity="0.07"/>
<path d="M394.211 669.963C394.211 669.963 351.673 661.7 268.538 679.046C268.538 679.046 329.208 688.951 394.211 669.963" fill="#1B2919" fill-opacity="0.07"/>
<path d="M415 668.06L291.854 678.525Z" fill="#1B2919" fill-opacity="0.07"/>
<path d="M360.866 650.425C360.866 650.425 319.566 637.307 234.982 644.942C234.982 644.942 294.104 661.783 360.866 650.425Z" fill="#1B2919" fill-opacity="0.07"/>
<path d="M381.737 650.931L258.206 647.117Z" fill="#1B2919" fill-opacity="0.07"/>
<path d="M328.273 631.86C328.273 631.86 288.905 613.751 204.025 610.907C204.025 610.907 260.625 634.903 328.273 631.86" fill="#1B2919" fill-opacity="0.07"/>
<path d="M348.922 634.937L226.805 615.929Z" fill="#1B2919" fill-opacity="0.07"/>
<path d="M273.745 606.744C273.745 606.744 235.468 586.426 150.884 578.763C150.884 578.763 206.032 605.939 273.745 606.744Z" fill="#1B2919" fill-opacity="0.07"/>
<path d="M294.184 610.986L173.343 585.069Z" fill="#1B2919" fill-opacity="0.07"/>
<path d="M249.392 590.12C249.392 590.12 213.735 565.494 130.618 548.056C130.618 548.056 182.23 581.457 249.392 590.12Z" fill="#1B2919" fill-opacity="0.07"/>
<path d="M269.201 596.71L152.189 556.93Z" fill="#1B2919" fill-opacity="0.07"/>
<path d="M607.401 788.713C607.401 788.713 587.881 742.08 588 642.991C588 642.991 613.691 709.959 607.401 788.713Z" fill="#1B2919" fill-opacity="0.07"/>
<path d="M610.148 812.918L592.93 669.757Z" fill="#1B2919" fill-opacity="0.07"/>
<path d="M641.315 822.756C641.315 822.756 620.542 776.659 617.985 677.608C617.985 677.608 645.475 743.856 641.315 822.756Z" fill="#1B2919" fill-opacity="0.07"/>
<path d="M644.717 846.875L623.633 704.229Z" fill="#1B2919" fill-opacity="0.07"/>
<path d="M667.055 845.08C667.055 845.08 652.966 790.204 669.147 680.351C669.147 680.351 686.788 758.768 667.055 845.08Z" fill="#1B2919" fill-opacity="0.07"/>
<path d="M666.182 872.358L670.278 710.827Z" fill="#1B2919" fill-opacity="0.07"/>
<path d="M695.221 881.45C695.221 881.45 682.272 826.295 700.721 716.801C700.721 716.801 716.733 795.566 695.221 881.45Z" fill="#1B2919" fill-opacity="0.07"/>
<path d="M693.787 908.702L701.22 747.286Z" fill="#1B2919" fill-opacity="0.07"/>
<path d="M724.252 918.314C724.252 918.314 713.382 862.712 735.921 753.984C735.921 753.984 748.972 833.294 724.252 918.314Z" fill="#1B2919" fill-opacity="0.07"/>
<path d="M721.802 945.498L735.277 784.477Z" fill="#1B2919" fill-opacity="0.07"/>
<path d="M747.739 953.314C747.739 953.314 739.402 897.277 766.843 789.684C766.843 789.684 776.287 869.505 747.739 953.314Z" fill="#1B2919" fill-opacity="0.07"/>
<path d="M744.06 980.356L764.82 820.109Z" fill="#1B2919" fill-opacity="0.07"/>
<path d="M770.341 990.139C770.341 990.139 765.692 933.673 800.129 828.109C800.129 828.109 804.322 908.381 770.341 990.139Z" fill="#1B2919" fill-opacity="0.07"/>
<path d="M764.895 1016.88L796.117 858.342Z" fill="#1B2919" fill-opacity="0.07"/>
<path d="M790.438 1012.68C790.438 1012.68 790.653 956.035 834.02 853.818C834.02 853.818 831.308 934.146 790.438 1012.68Z" fill="#1B2919" fill-opacity="0.07"/>
<path d="M782.714 1038.87L827.431 883.587Z" fill="#1B2919" fill-opacity="0.07"/>
<path d="M813.535 1037.87C813.535 1037.87 815.838 981.261 862.945 880.71C862.945 880.71 857.273 960.887 813.535 1037.87" fill="#1B2919" fill-opacity="0.07"/>
<path d="M804.858 1063.74L855.26 910.218Z" fill="#1B2919" fill-opacity="0.07"/>
<path d="M833.316 1067.76C833.316 1067.76 838.792 1011.37 891.456 913.621C891.456 913.621 881.3 993.358 833.316 1067.76Z" fill="#1B2919" fill-opacity="0.07"/>
<path d="M823.202 1093.11L882.129 942.651Z" fill="#1B2919" fill-opacity="0.07"/>
<path d="M849.072 1089.44C849.072 1089.44 857.898 1036.13 914.292 946.486C914.292 946.486 899.51 1021.71 849.072 1089.44Z" fill="#1B2919" fill-opacity="0.07"/>
<path d="M837.818 1112.91L903.551 973.512Z" fill="#1B2919" fill-opacity="0.07"/>
<path d="M875.172 1111.26C875.172 1111.26 885.892 1058.31 945.444 970.721C945.444 970.721 927.989 1045.37 875.172 1111.26Z" fill="#1B2919" fill-opacity="0.07"/>
<path d="M863.085 1134.32L933.749 997.351Z" fill="#1B2919" fill-opacity="0.07"/>
<path d="M894.218 1141.11C894.218 1141.11 902.905 1097.85 951.425 1026.26C951.425 1026.26 937.264 1087.24 894.218 1141.11Z" fill="#1B2919" fill-opacity="0.07"/>
<path d="M884.379 1159.96L941.903 1048.02Z" fill="#1B2919" fill-opacity="0.07"/>
<path d="M913.663 1163.2C913.663 1163.2 921.869 1119.85 969.594 1047.72C969.594 1047.72 956.111 1108.86 913.663 1163.2Z" fill="#1B2919" fill-opacity="0.07"/>
<path d="M904.03 1182.16L960.317 1069.59Z" fill="#1B2919" fill-opacity="0.07"/>
<path d="M941.651 1180.42C941.651 1180.42 952.096 1137.55 1003.5 1068C1003.5 1068 986.863 1128.35 941.651 1180.42Z" fill="#1B2919" fill-opacity="0.07"/>
<path d="M931.051 1198.85L993.098 1089.35Z" fill="#1B2919" fill-opacity="0.07"/>
<path d="M572.112 761.241C572.112 761.241 552.363 714.699 551.983 615.616C551.983 615.616 578.01 682.452 572.112 761.241Z" fill="#1B2919" fill-opacity="0.07"/>
<path d="M574.986 785.427L557.047 642.353Z" fill="#1B2919" fill-opacity="0.07"/>
<path d="M543.303 734.57C543.303 734.57 518.154 690.711 505.992 592.375C505.992 592.375 539.786 655.641 543.303 734.57Z" fill="#1B2919" fill-opacity="0.07"/>
<path d="M549.029 758.246L514.203 618.321Z" fill="#1B2919" fill-opacity="0.07"/>
<path d="M511.986 712.024C511.986 712.024 480.431 672.526 453.38 577.203C453.38 577.203 496.445 634.56 511.986 712.024Z" fill="#1B2919" fill-opacity="0.07"/>
<path d="M521.268 734.542L465.458 601.587Z" fill="#1B2919" fill-opacity="0.07"/>
<path d="M473.447 687.009C473.447 687.009 446.4 653.154 423.211 571.452C423.211 571.452 460.127 620.617 473.447 687.009" fill="#1B2919" fill-opacity="0.07"/>
<path d="M481.403 706.307L433.571 592.353Z" fill="#1B2919" fill-opacity="0.07"/>
<path d="M434.901 662.416C434.901 662.416 407.85 628.563 384.664 546.863C384.664 546.863 421.578 596.026 434.901 662.416" fill="#1B2919" fill-opacity="0.07"/>
<path d="M442.852 681.723L395.017 567.764Z" fill="#1B2919" fill-opacity="0.07"/>
<path d="M399.36 641.473C399.36 641.473 370.745 608.933 343.737 528.413C343.737 528.413 382.926 575.782 399.36 641.473Z" fill="#1B2919" fill-opacity="0.07"/>
<path d="M408.217 660.379L355.065 548.803Z" fill="#1B2919" fill-opacity="0.07"/>
<path d="M364.725 627.751C364.725 627.751 332.546 598.726 296.424 521.862C296.424 521.862 340.817 564.388 364.725 627.751" fill="#1B2919" fill-opacity="0.07"/>
<path d="M375.702 645.503L310.03 540.807Z" fill="#1B2919" fill-opacity="0.07"/>
<path d="M322.355 609.51C322.355 609.51 286.846 584.676 241.531 512.847C241.531 512.847 290.825 549.581 322.355 609.51Z" fill="#1B2919" fill-opacity="0.07"/>
<path d="M335.433 625.779L257.364 529.969Z" fill="#1B2919" fill-opacity="0.07"/>
<path d="M302.047 603.995C302.047 603.995 262.053 587.309 202.448 526.811C202.448 526.811 258.45 552.178 302.047 603.995Z" fill="#1B2919" fill-opacity="0.07"/>
<path d="M318.296 617.097L221.574 540.156Z" fill="#1B2919" fill-opacity="0.07"/>
<path d="M275.407 596.062C275.407 596.062 233.908 583.585 168.388 529.553C168.388 529.553 226.703 549.014 275.407 596.062Z" fill="#1B2919" fill-opacity="0.07"/>
<path d="M292.926 607.419L188.785 540.861Z" fill="#1B2919" fill-opacity="0.07"/>
<path d="M713.872 155.977C713.872 155.977 860.912 154.289 860.072 293.734C860.072 293.734 828.805 232.882 786.979 206.685C786.979 206.685 831.339 265.842 813.592 318.241C813.592 318.241 795.419 252.11 737.112 219.785C737.112 219.785 787.392 283.593 751.045 374.865C751.045 374.865 734.152 259.084 685.979 227.814C685.979 227.814 746.832 319.089 722.325 391.768C722.325 391.768 674.152 254.856 638.645 223.588C638.645 223.588 691.899 326.692 678.365 368.104C678.365 368.104 623.432 314.017 604.005 265.845C604.005 265.845 596.392 336.833 644.565 398.528C644.565 398.528 579.499 374.862 564.285 307.256C564.285 307.256 553.299 352.045 571.045 449.234C571.045 449.234 523.712 405.713 520.752 349.512C520.752 349.512 525.832 449.233 485.685 474.165C485.685 474.165 497.099 385.428 479.352 361.341C479.352 361.341 441.099 385.217 416.384 492.337C416.384 492.337 387.863 428.32 440.472 337.045C440.472 337.045 411.315 371.906 398.003 425.149C398.003 425.149 383.003 379.089 415.963 328.381C415.963 328.381 387.649 350.777 379.621 376.553C379.621 376.553 374.131 324.58 419.341 278.942C419.341 278.942 375.819 310.213 365.677 336.834C365.677 336.834 382.58 256.97 443.845 237.532C443.845 237.532 392.299 243.87 365.677 284.436C365.677 284.436 407.091 207.954 476.392 201.193C476.392 201.193 380.888 205.838 353 239.221C353 239.221 380.469 164.428 514.419 172.033C514.419 172.033 453.992 158.09 413.429 168.654C413.429 168.654 427.793 130.201 523.712 139.074C523.712 139.074 469.632 119.636 427.793 130.201C427.793 130.201 444.699 86.2569 553.299 110.765C553.299 110.765 509.352 72.3103 461.605 81.1849C461.605 81.1849 507.659 53.2982 571.459 76.5369C571.459 76.5369 516.112 15.6875 467.939 14.8422C467.939 14.8422 519.059 -15.1604 596.819 42.3089C596.819 42.3089 578.645 6.39156 552.872 0.0528939C552.872 0.0528939 625.552 -4.59244 660.205 73.5809C660.205 73.5809 651.752 18.645 625.125 4.27828C625.125 4.27828 682.179 17.3782 690.205 87.1022C690.205 87.1022 695.699 35.5502 674.139 16.5356C674.139 16.5356 754.645 68.0836 713.872 155.977" fill="#365533" fill-opacity="0.07"/>
<path d="M486.045 299.349C486.045 299.352 489.738 294.831 496.605 287.292C503.458 279.751 513.618 269.296 526.365 257.313C532.778 251.369 539.805 244.985 547.472 238.516C555.072 231.952 563.458 225.469 572.192 218.829C580.992 212.303 590.245 205.717 599.965 199.477C602.392 197.917 604.832 196.351 607.272 194.781C609.765 193.28 612.272 191.777 614.765 190.268C619.752 187.192 624.925 184.411 630.072 181.556C635.192 178.66 640.525 176.141 645.725 173.423C651.058 170.949 656.338 168.416 661.658 166.074C672.352 161.494 683.098 157.373 693.832 154.365C699.205 152.901 704.472 151.367 709.765 150.455C712.405 149.927 715.005 149.405 717.578 148.889C720.152 148.421 722.752 148.188 725.272 147.835C727.818 147.513 730.312 147.193 732.778 146.88C735.245 146.574 737.698 146.517 740.098 146.332C744.912 146.118 749.525 145.717 753.992 145.918C758.458 146.008 762.725 145.991 766.765 146.324C770.818 146.737 774.645 147.064 778.218 147.495C785.378 148.409 791.512 149.88 796.552 150.839C806.512 153.659 812.045 155.481 812.045 155.481L811.752 156.713C811.752 156.713 805.872 156.338 795.872 155.33C793.352 155.26 790.552 155.181 787.512 155.093C786.005 155.035 784.432 154.97 782.805 154.902C781.992 154.87 781.165 154.839 780.325 154.807C779.472 154.833 778.618 154.861 777.752 154.892C774.245 155.029 770.552 155.048 766.658 155.136C762.765 155.277 758.685 155.801 754.432 156.049C750.192 156.232 745.792 157.03 741.245 157.637C738.978 157.956 736.645 158.145 734.325 158.584C731.992 159.031 729.632 159.483 727.245 159.94C724.845 160.415 722.418 160.813 719.978 161.368C717.538 161.944 715.085 162.529 712.592 163.118C710.112 163.753 707.565 164.222 705.058 164.941C702.538 165.644 699.992 166.355 697.432 167.073C687.152 169.837 676.685 173.315 666.098 177.091C660.832 179.047 655.578 181.215 650.312 183.384C645.138 185.787 639.832 187.984 634.712 190.572C629.592 193.149 624.418 195.655 619.432 198.468C616.925 199.843 614.418 201.213 611.912 202.58C609.458 204.021 607.005 205.46 604.552 206.891C594.778 212.62 585.418 218.725 576.472 224.801C558.685 237.117 542.658 249.516 529.365 260.688C516.085 271.88 505.512 281.809 498.218 288.853C490.938 295.933 487.005 300.185 487.005 300.187L486.045 299.349" fill="#233521" fill-opacity="0.07"/>
<path d="M259.505 995.94C259.505 995.94 258.785 1016.33 296.804 1018.36C296.804 1018.36 377.923 1026.73 353.206 1102.53C353.206 1102.53 337.567 1147.46 319.029 1167.66C319.029 1167.66 310.291 1181.6 319.097 1188.86C319.097 1188.86 329.524 1193.63 339.122 1173.01C339.122 1173.01 387.022 1097.06 363.455 1048.86C363.455 1048.86 387.177 1056.43 408.99 1087.01C408.99 1087.01 425.314 1142.81 355.223 1229.81C355.223 1229.81 346.325 1240.46 354.862 1249.22C354.862 1249.22 363.746 1264.01 391.43 1217.46C391.43 1217.46 439.545 1149.06 423.614 1097.94C423.614 1097.94 463.5 1128.23 480.807 1166.64C480.807 1166.64 489.611 1227.45 392.046 1284.56C392.046 1284.56 364.555 1300.87 374.887 1312.61C374.887 1312.61 380.26 1324.29 423.2 1297.55C423.2 1297.55 496.238 1247.42 494.195 1209.6C494.195 1209.6 573.918 1319.75 469.572 1434.78C469.572 1434.78 397.676 1523.68 343.967 1392.48C343.967 1392.48 338.547 1376.81 328.646 1380.16C328.646 1380.16 318.377 1381.5 324.966 1405.21C324.966 1405.21 353.844 1488.87 282.213 1514.8C282.213 1514.8 211.19 1550.82 135.315 1447.89C135.315 1447.89 98.7697 1396.65 92.0485 1371.84C92.0485 1371.84 157.158 1400.16 214.801 1393.61C214.801 1393.61 258.738 1388.06 256.86 1376.9C256.86 1376.9 255.352 1363.48 217.295 1367.33C217.295 1367.33 122.992 1375.36 87.64 1333.9C87.64 1333.9 71.963 1282.31 72.7316 1230.79C72.7316 1230.79 222.024 1346.1 237.001 1304.18C237.001 1304.18 242.485 1289.65 200.34 1286.16C200.34 1286.16 129.089 1280.53 78.1275 1214.69C78.1275 1214.69 99.6947 1145.08 95.599 1131.94C95.599 1131.94 134.473 1191.13 188.928 1220.62C188.928 1220.62 253.164 1260.29 247.676 1231.75C247.676 1231.75 247.512 1222.66 202.228 1202.45C202.228 1202.45 133.643 1171.75 108.681 1120.79C108.681 1120.79 129.748 1074.43 158.604 1052.62C158.604 1052.62 209.015 1177.11 242.084 1162.4C242.084 1162.4 256.894 1156.58 234.995 1138.37C234.995 1138.37 161.09 1079.89 180.011 1040.34C180.011 1040.34 192.491 1017.45 234.976 1016.2C234.976 1016.2 252.472 1018.36 259.505 995.94" fill="#242D1F" fill-opacity="0.07"/>
<path d="M328.645 1380.16C328.645 1380.16 326.725 1374.34 323.604 1364.09C320.544 1353.81 316.059 1339.16 311.16 1321.45C306.21 1303.75 300.704 1283.02 295.192 1260.71C292.458 1249.55 289.629 1238.02 286.964 1226.25C284.306 1214.48 281.649 1202.51 279.117 1190.52C276.646 1178.51 274.249 1166.48 272.055 1154.61C269.779 1142.75 267.884 1131.02 266.072 1119.66C264.249 1108.3 262.771 1097.27 261.482 1086.81C260.192 1076.34 259.232 1066.4 258.512 1057.22C257.8 1048.04 257.4 1039.6 257.268 1032.11C257.109 1028.38 257.228 1024.87 257.216 1021.63C257.189 1018.4 257.269 1015.42 257.431 1012.74C257.556 1010.05 257.643 1007.66 257.805 1005.58C258.027 1003.51 258.214 1001.74 258.363 1000.31C258.668 997.456 258.833 995.933 258.833 995.933C258.833 995.933 258.785 997.468 258.697 1000.33C258.654 1001.77 258.6 1003.54 258.536 1005.61C258.559 1007.69 258.589 1010.08 258.623 1012.75C258.614 1015.43 258.7 1018.38 258.908 1021.6C259.097 1024.82 259.176 1028.3 259.544 1032.01C260.107 1039.43 260.984 1047.78 262.011 1056.88C264.175 1075.07 267.408 1096.21 271.388 1118.77C273.348 1130.07 275.59 1141.69 277.861 1153.51C280.111 1165.33 282.582 1177.3 285.102 1189.27C287.556 1201.24 290.14 1213.2 292.721 1224.96C295.342 1236.71 297.921 1248.28 300.42 1259.47C305.586 1281.83 310.412 1302.69 314.547 1320.58C323.006 1356.33 328.645 1380.16 328.645 1380.16" fill="#57814B" fill-opacity="0.07"/>
<path d="M299.918 1268.97C299.918 1268.97 301.648 1266.53 304.679 1262.26C307.733 1258 311.958 1251.83 317.058 1244.46C322.173 1237.09 327.917 1228.35 334.065 1218.99C340.211 1209.63 346.569 1199.52 352.585 1189.21C355.642 1184.08 358.662 1178.94 361.485 1173.79C364.349 1168.66 367.026 1163.55 369.514 1158.55C371.989 1153.54 374.313 1148.66 376.393 1143.99C378.456 1139.31 380.233 1134.8 381.746 1130.6C383.192 1126.38 384.429 1122.48 385.345 1118.97C386.201 1115.46 386.927 1112.36 387.203 1109.77C387.62 1107.19 387.745 1105.15 387.785 1103.75C387.861 1102.34 387.9 1101.6 387.9 1101.6C387.9 1101.6 387.918 1102.34 387.953 1103.74C388.004 1105.15 388.082 1107.22 387.794 1109.84C387.664 1112.47 387.117 1115.62 386.457 1119.23C386.048 1121.01 385.692 1122.94 385.173 1124.93C384.62 1126.9 384.054 1129 383.378 1131.15C380.649 1139.75 376.81 1149.57 371.898 1159.71C369.448 1164.78 366.815 1169.97 363.992 1175.16C361.206 1180.37 358.238 1185.58 355.213 1190.76C349.046 1201.06 342.545 1211.13 336.271 1220.46C330.002 1229.78 323.781 1238.22 318.453 1245.46C313.115 1252.68 308.406 1258.51 305.154 1262.61C301.871 1266.7 299.918 1268.97 299.918 1268.97" fill="#57814B" fill-opacity="0.07"/>
<path d="M315.282 1330.42C315.282 1330.42 317.856 1328.31 322.368 1324.61C326.886 1320.93 333.213 1315.52 340.807 1309.05C348.417 1302.58 357.071 1294.78 366.273 1286.38C375.47 1277.96 385.064 1268.75 394.274 1259.18C398.923 1254.44 403.466 1249.6 407.842 1244.74C412.168 1239.85 416.354 1234.97 420.195 1230.09C424.017 1225.19 427.683 1220.43 430.844 1215.7C431.644 1214.52 432.432 1213.36 433.208 1212.22C433.929 1211.04 434.636 1209.88 435.337 1208.74C436.783 1206.48 438.003 1204.21 439.16 1202.02C440.396 1199.86 441.318 1197.67 442.267 1195.62C443.29 1193.6 443.968 1191.57 444.672 1189.68C445.44 1187.81 445.895 1185.98 446.318 1184.29C446.793 1182.61 447.165 1181.05 447.296 1179.61C447.479 1178.17 447.693 1176.89 447.809 1175.77C447.814 1174.64 447.819 1173.68 447.825 1172.91C447.83 1171.34 447.835 1170.51 447.835 1170.51C447.835 1170.51 447.887 1171.34 447.991 1172.9C448.039 1173.68 448.103 1174.65 448.176 1175.78C448.146 1176.92 448.002 1178.22 447.886 1179.68C447.829 1181.16 447.534 1182.75 447.142 1184.48C446.802 1186.21 446.432 1188.1 445.75 1190.03C445.138 1191.98 444.554 1194.09 443.627 1196.19C442.771 1198.32 441.867 1200.57 440.697 1202.79C439.594 1205.06 438.423 1207.41 437.034 1209.73C436.365 1210.91 435.679 1212.11 434.986 1213.33C434.241 1214.51 433.482 1215.71 432.709 1216.93C429.656 1221.81 426.136 1226.77 422.287 1231.72C418.458 1236.7 414.287 1241.66 409.979 1246.64C405.62 1251.57 401.105 1256.5 396.467 1261.31C387.103 1270.84 377.372 1279.99 368.05 1288.34C358.734 1296.7 349.686 1304.08 341.904 1310.37C334.117 1316.65 327.404 1321.59 322.731 1325.08C318.033 1328.54 315.282 1330.42 315.282 1330.42" fill="#57814B" fill-opacity="0.07"/>
<path d="M322.881 1361.66C322.881 1361.66 325.912 1361.27 331.214 1360.57C336.518 1359.87 344.063 1358.68 353.093 1357.17C357.602 1356.4 362.488 1355.54 367.628 1354.51C372.777 1353.51 378.177 1352.32 383.761 1351.12C394.922 1348.68 406.74 1345.65 418.324 1341.93C424.133 1340.13 429.915 1338.23 435.49 1336.06C441.096 1333.97 446.489 1331.61 451.633 1329.18C454.21 1327.98 456.639 1326.6 459.106 1325.4C461.487 1324.06 463.827 1322.76 466.068 1321.43C468.235 1320 470.419 1318.71 472.398 1317.27C474.338 1315.78 476.324 1314.47 478.029 1312.97C481.53 1310.08 484.487 1307.15 486.994 1304.44C488.159 1303 489.248 1301.66 490.257 1300.41C491.223 1299.14 491.942 1297.85 492.686 1296.75C494.226 1294.57 494.971 1292.59 495.65 1291.33C496.286 1290.05 496.62 1289.36 496.62 1289.36C496.62 1289.36 496.336 1290.07 495.803 1291.4C495.207 1292.7 494.645 1294.77 493.198 1297.05C492.515 1298.2 491.853 1299.55 490.95 1300.9C490 1302.22 488.97 1303.64 487.867 1305.16C486.703 1306.64 485.324 1308.09 483.94 1309.68C482.545 1311.28 480.81 1312.67 479.148 1314.28C477.459 1315.87 475.493 1317.27 473.565 1318.86C471.594 1320.39 469.425 1321.78 467.263 1323.32C465.032 1324.75 462.699 1326.15 460.323 1327.6C457.883 1328.92 455.384 1330.3 452.796 1331.57C447.607 1334.09 442.166 1336.54 436.52 1338.72C430.901 1340.98 425.086 1342.97 419.238 1344.85C407.5 1348.47 395.572 1351.39 384.315 1353.71C373.061 1356.06 362.444 1357.62 353.346 1358.87C335.124 1361.24 322.881 1361.66 322.881 1361.66" fill="#57814B" fill-opacity="0.07"/>
<path d="M324.844 1366.4C324.844 1366.4 326.881 1366.44 330.431 1366.66C333.983 1366.91 339.068 1367.2 345.133 1367.89C351.196 1368.57 358.28 1369.38 365.814 1370.63C373.355 1371.84 381.355 1373.43 389.295 1375.33C393.262 1376.29 397.2 1377.37 401.061 1378.5C404.926 1379.61 408.665 1380.93 412.276 1382.23C415.877 1383.58 419.295 1385.04 422.468 1386.58C425.633 1388.14 428.576 1389.73 431.162 1391.42C433.768 1393.07 436.032 1394.81 437.826 1396.57C438.74 1397.44 439.592 1398.24 440.252 1399.12C440.92 1399.98 441.638 1400.68 442.059 1401.48C442.525 1402.26 442.942 1402.94 443.303 1403.54C443.587 1404.18 443.783 1404.74 443.959 1405.18C444.303 1406.07 444.488 1406.55 444.488 1406.55C444.488 1406.55 444.251 1406.1 443.809 1405.25C443.578 1404.84 443.332 1404.31 442.987 1403.72C442.576 1403.17 442.107 1402.54 441.581 1401.84C441.112 1401.1 440.342 1400.46 439.629 1399.69C438.93 1398.9 438.029 1398.19 437.076 1397.43C436.16 1396.63 435.077 1395.91 433.929 1395.16C432.82 1394.36 431.567 1393.64 430.267 1392.89C427.671 1391.38 424.715 1389.98 421.544 1388.62C418.364 1387.27 414.931 1386.03 411.372 1384.77C404.212 1382.36 396.433 1380.17 388.575 1378.3C380.725 1376.36 372.795 1374.73 365.344 1373.27C357.887 1371.84 350.91 1370.54 344.902 1369.59C338.888 1368.62 333.876 1367.81 330.372 1367.25C326.855 1366.71 324.844 1366.4 324.844 1366.4" fill="#57814B" fill-opacity="0.07"/>
<path d="M322.694 1358.46C322.694 1358.46 320.888 1360.33 317.727 1363.6C314.551 1366.85 310.142 1371.61 304.831 1377.3C299.509 1382.98 293.512 1389.79 287.119 1397.11C280.735 1404.43 274.101 1412.39 267.849 1420.64C264.684 1424.73 261.559 1428.85 258.631 1433.01C255.686 1437.16 252.884 1441.31 250.355 1445.44C247.807 1449.55 245.442 1453.58 243.346 1457.48C241.258 1461.39 239.501 1465.19 238.03 1468.76C236.623 1472.36 235.474 1475.71 234.656 1478.74C233.917 1481.78 233.315 1484.47 233.178 1486.72C232.876 1488.97 232.901 1490.75 232.936 1491.97C232.948 1493.19 232.956 1493.83 232.956 1493.83C232.956 1493.83 232.893 1493.19 232.771 1491.98C232.642 1490.76 232.411 1488.97 232.586 1486.68C232.572 1484.39 233.002 1481.63 233.545 1478.49C233.914 1476.94 234.212 1475.25 234.7 1473.53C235.234 1471.82 235.752 1470 236.419 1468.16C237.765 1464.46 239.395 1460.53 241.355 1456.48C243.32 1452.43 245.519 1448.22 248.09 1444.05C250.598 1439.84 253.376 1435.61 256.292 1431.38C259.19 1427.13 262.28 1422.93 265.429 1418.77C271.846 1410.54 278.622 1402.63 285.136 1395.35C288.363 1391.69 291.638 1388.29 294.744 1385.07C297.85 1381.85 300.831 1378.86 303.597 1376.1C309.124 1370.6 313.966 1366.25 317.317 1363.17C320.697 1360.12 322.694 1358.46 322.694 1358.46" fill="#57814B" fill-opacity="0.07"/>
<path d="M320.605 1354.36C320.605 1354.36 318.889 1357.18 315.456 1361.81C311.978 1366.41 306.885 1372.92 300.003 1380.05C296.525 1383.58 292.732 1387.38 288.439 1391.12C284.201 1394.9 279.539 1398.7 274.457 1402.28C269.399 1405.89 263.944 1409.31 258.213 1412.45C252.452 1415.53 246.433 1418.39 240.161 1420.64L235.449 1422.28L230.651 1423.62C227.481 1424.61 224.2 1425.11 221.002 1425.82C217.78 1426.4 214.537 1426.74 211.356 1427.16C208.145 1427.3 204.979 1427.62 201.862 1427.59C198.744 1427.45 195.665 1427.62 192.68 1427.22C189.704 1426.83 186.765 1426.68 183.966 1426.11C181.169 1425.54 178.431 1425.08 175.822 1424.46C173.24 1423.74 170.747 1423.03 168.352 1422.36C165.964 1421.69 163.771 1420.74 161.643 1419.98C159.528 1419.17 157.505 1418.47 155.709 1417.54C152.096 1415.76 148.832 1414.46 146.364 1412.96C141.365 1410.09 138.51 1408.44 138.51 1408.44C138.51 1408.44 141.465 1409.89 146.63 1412.43C149.159 1413.79 152.481 1414.91 156.145 1416.49C157.967 1417.3 160.009 1417.9 162.14 1418.6C164.28 1419.24 166.461 1420.13 168.842 1420.71C171.218 1421.3 173.694 1421.91 176.257 1422.54C178.839 1423.06 181.544 1423.43 184.301 1423.9C189.848 1424.64 195.741 1424.97 201.832 1424.94C204.876 1424.93 207.96 1424.58 211.09 1424.41C214.188 1423.98 217.346 1423.62 220.479 1423.01C223.592 1422.28 226.783 1421.77 229.867 1420.77L234.534 1419.41L239.123 1417.77C245.263 1415.64 251.184 1412.9 256.866 1409.94C262.52 1406.91 267.92 1403.61 272.938 1400.11C277.944 1396.6 282.689 1393.05 286.995 1389.43C291.353 1385.88 295.227 1382.23 298.787 1378.84C305.807 1371.96 311.326 1365.88 314.992 1361.45C318.665 1357.03 320.605 1354.36 320.605 1354.36" fill="#57814B" fill-opacity="0.07"/>
<path d="M320.734 1347.91C320.734 1347.91 317.558 1348.18 311.99 1348.42C306.419 1348.61 298.457 1348.91 288.9 1348.8C284.122 1348.76 278.942 1348.65 273.468 1348.46C267.993 1348.26 262.215 1348.05 256.258 1347.56C244.332 1346.69 231.63 1345.41 218.996 1343.53C212.693 1342.53 206.399 1341.43 200.246 1340.13C194.084 1338.89 188.062 1337.45 182.265 1335.93C176.462 1334.43 170.933 1332.68 165.741 1330.9C160.553 1329.07 155.708 1327.2 151.308 1325.3C146.916 1323.38 142.93 1321.51 139.545 1319.58C136.086 1317.78 133.232 1315.94 130.858 1314.48C128.473 1313.03 126.774 1311.62 125.538 1310.79C124.329 1309.92 123.682 1309.45 123.682 1309.45C123.682 1309.45 124.363 1309.87 125.633 1310.65C126.923 1311.4 128.723 1312.64 131.168 1313.97C133.608 1315.3 136.533 1316.97 140.06 1318.57C141.794 1319.41 143.653 1320.29 145.669 1321.09C147.678 1321.9 149.719 1322.91 151.961 1323.71C156.383 1325.45 161.243 1327.15 166.438 1328.78C171.641 1330.37 177.179 1331.89 182.93 1333.36C188.689 1334.8 194.677 1336.17 200.806 1337.33C206.924 1338.56 213.186 1339.56 219.458 1340.51C231.983 1342.5 244.606 1343.93 256.463 1344.92C268.327 1345.91 279.42 1346.72 288.947 1347.09C307.994 1347.96 320.734 1347.91 320.734 1347.91Z" fill="#57814B" fill-opacity="0.07"/>
<path d="M305.965 1293.75C305.965 1293.75 302.681 1293.16 296.978 1291.9C291.286 1290.61 283.133 1288.81 273.471 1286.18C263.814 1283.54 252.552 1280.39 240.67 1276.41C228.787 1272.44 216.231 1267.83 203.882 1262.67C197.73 1260.05 191.641 1257.27 185.729 1254.36C179.801 1251.48 174.077 1248.41 168.607 1245.32C165.883 1243.77 163.24 1242.15 160.666 1240.57C158.152 1238.89 155.689 1237.25 153.292 1235.64C150.974 1233.93 148.682 1232.31 146.538 1230.65C144.444 1228.92 142.364 1227.32 140.473 1225.66C138.626 1223.95 136.793 1222.38 135.167 1220.76C133.597 1219.09 132.104 1217.51 130.704 1216.01C128.12 1212.84 125.863 1210.09 124.338 1207.57C122.614 1205.19 121.699 1203.06 120.963 1201.68C120.255 1200.29 119.874 1199.54 119.874 1199.54C119.874 1199.54 120.304 1200.26 121.111 1201.6C121.929 1202.93 123.015 1204.95 124.828 1207.23C126.46 1209.64 128.839 1212.25 131.542 1215.24C132.999 1216.64 134.551 1218.13 136.185 1219.69C137.864 1221.21 139.705 1222.73 141.583 1224.35C143.497 1225.93 145.606 1227.44 147.72 1229.08C149.889 1230.65 152.208 1232.17 154.546 1233.8C156.962 1235.3 159.444 1236.85 161.985 1238.43C164.572 1239.93 167.221 1241.46 169.913 1243.01C175.362 1246.01 181.062 1248.99 186.974 1251.78C192.863 1254.62 198.94 1257.3 205.075 1259.86C217.285 1265.11 229.732 1269.83 241.524 1273.9C253.317 1277.97 264.376 1281.65 273.944 1284.53C283.507 1287.42 291.493 1289.8 297.123 1291.33C302.751 1292.87 305.965 1293.75 305.965 1293.75" fill="#57814B" fill-opacity="0.07"/>
<path d="M289.228 1222.87C289.228 1222.87 286.861 1222.05 282.784 1220.45C278.72 1218.82 272.883 1216.55 266.037 1213.45C259.2 1210.35 251.212 1206.71 242.881 1202.37C234.543 1198.03 225.778 1193.15 217.202 1187.92C208.697 1182.59 200.407 1176.9 192.971 1171.09C191.114 1169.64 189.314 1168.17 187.581 1166.71C185.887 1165.19 184.232 1163.71 182.621 1162.26C179.473 1159.29 176.604 1156.37 174.083 1153.55C172.866 1152.1 171.66 1150.75 170.595 1149.4C169.579 1148.01 168.617 1146.69 167.709 1145.45C166.056 1142.85 164.613 1140.6 163.679 1138.6C162.594 1136.68 162.068 1135.02 161.634 1133.93C161.215 1132.84 160.99 1132.26 160.99 1132.26C160.99 1132.26 161.266 1132.82 161.785 1133.87C162.307 1134.92 163.013 1136.48 164.198 1138.31C165.255 1140.22 166.837 1142.35 168.629 1144.77C169.6 1145.93 170.639 1147.16 171.728 1148.46C172.877 1149.71 174.084 1151.02 175.346 1152.39C177.944 1155.05 180.887 1157.8 184.109 1160.6C187.368 1163.36 190.895 1166.15 194.591 1168.99C202.012 1174.62 210.312 1180.14 218.81 1185.33C227.241 1190.62 235.887 1195.59 244.125 1200.02C252.354 1204.45 260.061 1208.58 266.775 1211.9C273.479 1215.24 279.06 1218.05 283.018 1219.91C286.967 1221.79 289.228 1222.87 289.228 1222.87" fill="#57814B" fill-opacity="0.07"/>
<path d="M271.228 1133.87C271.228 1133.87 269.895 1133.35 267.653 1132.24C265.414 1131.12 262.221 1129.5 258.544 1127.27C256.745 1126.1 254.739 1124.9 252.718 1123.5C250.686 1122.1 248.511 1120.66 246.421 1118.96C244.269 1117.34 242.126 1115.56 240.014 1113.66C237.831 1111.85 235.879 1109.72 233.784 1107.74C231.808 1105.64 229.925 1103.44 228.071 1101.29C226.375 1099 224.625 1096.81 223.172 1094.52C221.79 1092.18 220.296 1090.02 219.285 1087.74C218.28 1085.46 217.172 1083.38 216.444 1081.34C215.75 1079.29 215.179 1077.38 214.678 1075.71C214.181 1074.03 214.088 1072.48 213.841 1071.25C213.477 1068.78 213.268 1067.37 213.268 1067.37C213.268 1067.37 213.686 1068.73 214.418 1071.12C214.812 1072.3 215.081 1073.78 215.769 1075.37C216.468 1076.95 217.248 1078.72 218.03 1080.67C218.88 1082.6 220.117 1084.54 221.242 1086.67C222.375 1088.79 224.016 1090.77 225.397 1093C226.868 1095.18 228.71 1097.19 230.352 1099.41C232.181 1101.48 234.04 1103.59 235.984 1105.61C238.002 1107.57 239.88 1109.68 241.994 1111.48C244.049 1113.34 246.042 1115.21 248.11 1116.86C250.119 1118.59 252.122 1120.19 254.023 1121.7C255.911 1123.23 257.803 1124.55 259.493 1125.84C262.975 1128.27 265.837 1130.4 267.946 1131.72C270.033 1133.09 271.228 1133.87 271.228 1133.87" fill="#57814B" fill-opacity="0.07"/>
<path d="M280.611 1182.72C280.611 1182.72 285.222 1175.28 291.842 1164C295.198 1158.39 298.908 1151.72 302.878 1144.59C306.842 1137.45 310.89 1129.74 314.607 1121.89C318.442 1114.09 321.962 1106.14 324.728 1098.51C326.068 1094.67 327.335 1090.96 328.339 1087.39C329.307 1083.81 330.1 1080.38 330.528 1077.18C330.743 1075.58 330.966 1074.04 331.002 1072.57C331.11 1071.11 331.199 1069.71 331.096 1068.41C331.063 1067.1 331.017 1065.87 330.779 1064.76C330.569 1063.64 330.501 1062.58 330.147 1061.71C329.859 1060.8 329.607 1060 329.386 1059.3C329.057 1058.64 328.77 1058.08 328.546 1057.63C328.081 1056.71 327.83 1056.23 327.83 1056.23C327.83 1056.23 328.131 1056.68 328.689 1057.54C328.969 1057.98 329.315 1058.51 329.717 1059.14C330.008 1059.84 330.339 1060.63 330.711 1061.52C331.145 1062.4 331.301 1063.46 331.608 1064.6C331.945 1065.73 332.09 1066.98 332.23 1068.32C332.443 1069.67 332.467 1071.1 332.474 1072.62C332.551 1074.14 332.368 1075.72 332.24 1077.38C331.956 1080.69 331.314 1084.23 330.502 1087.93C330.091 1089.78 329.556 1091.65 329.07 1093.59C328.516 1095.5 327.877 1097.43 327.232 1099.39C324.543 1107.19 321.115 1115.29 317.358 1123.22C313.481 1131.09 309.285 1138.78 305.184 1145.89C301.086 1153.01 296.877 1159.41 293.293 1164.91C289.698 1170.4 286.456 1174.81 284.228 1177.92C281.976 1181.01 280.611 1182.72 280.611 1182.72" fill="#57814B" fill-opacity="0.07"/>
<path d="M265.093 1096.13C265.093 1096.13 265.934 1095.61 267.412 1094.7C268.894 1093.81 270.927 1092.4 273.331 1090.71C278.11 1087.31 284.302 1082.47 289.161 1076.53C290.41 1075.08 291.512 1073.52 292.541 1071.95C293.495 1070.34 294.455 1068.77 295.148 1067.13C295.858 1065.51 296.492 1063.9 296.884 1062.31C297.125 1061.53 297.287 1060.75 297.416 1059.99C297.58 1059.24 297.711 1058.5 297.759 1057.78C298.121 1054.92 297.999 1052.47 297.842 1050.75C297.606 1049.05 297.51 1048.05 297.51 1048.05C297.51 1048.05 297.868 1048.97 298.425 1050.64C298.652 1051.48 298.89 1052.52 299.145 1053.73C299.308 1054.95 299.554 1056.34 299.515 1057.87C299.556 1059.4 299.457 1061.08 299.114 1062.81C298.843 1064.55 298.339 1066.37 297.64 1068.16C296.307 1071.8 294.102 1075.33 291.519 1078.47C286.305 1084.8 279.527 1089.4 274.25 1092.2C268.935 1095.01 265.093 1096.13 265.093 1096.13" fill="#57814B" fill-opacity="0.07"/>
</svg>
