<svg id="Capa_1" enable-background="new 0 0 509.391 509.391" height="512" viewBox="0 0 509.391 509.391" width="512" xmlns="http://www.w3.org/2000/svg"><g id="XMLID_588_"><path id="XMLID_686_" d="m434.792 74.599c-48.105-48.106-112.065-74.599-180.097-74.599s-131.991 26.493-180.096 74.599-74.599 112.065-74.599 180.096 26.493 131.991 74.599 180.097 112.065 74.599 180.097 74.599 131.991-26.493 180.097-74.599 74.599-112.065 74.599-180.097-26.495-131.991-74.6-180.096zm-404.792 180.096c0-53.627 18.894-102.918 50.362-141.589l42.002 42.002c-18.228 10.886-35.234 24.103-50.637 39.506l21.213 21.213c15.471-15.471 32.776-28.438 51.413-38.73l40.021 40.021c-19.453 8.498-37.667 20.688-53.561 36.582l21.213 21.213c16.16-16.16 35.216-27.698 55.51-34.633l43.775 43.775c-22.842.819-45.439 9.908-62.836 27.306l21.213 21.213c12.022-12.022 28.007-18.644 45.009-18.644s32.986 6.621 45.009 18.644l.062-.062 96.518 96.518c-38.671 31.468-87.962 50.362-141.589 50.362-123.899-.001-224.697-100.799-224.697-224.697zm388.263 153.887-175.62-175.621c41.087-3.392 83.353 10.584 114.722 41.951l21.213-21.213c-43.945-43.946-105.618-59.612-162.211-47.014l-43.025-43.025c25.64-9.739 53.104-14.835 81.353-14.835 61.103 0 118.549 23.795 161.755 67.001l21.213-21.213c-48.872-48.873-113.852-75.788-182.968-75.788-36.531 0-71.905 7.525-104.357 21.831l-49.529-49.529c40.238-37.878 94.395-61.127 153.886-61.127 123.897 0 224.695 100.798 224.695 224.695.001 59.492-23.248 113.649-61.127 153.887z"/><path id="XMLID_810_" d="m254.735 373.066c-7.846 0-15.363 6.899-15 15 .364 8.127 6.591 15 15 15 7.846 0 15.363-6.899 15-15-.364-8.127-6.591-15-15-15z"/></g></svg>