<?xml version="1.0" encoding="iso-8859-1"?>
<!-- Generator: Adobe Illustrator 19.1.0, SVG Export Plug-In . SVG Version: 6.00 Build 0)  -->
<svg version="1.1" id="Capa_1" xmlns="http://www.w3.org/2000/svg" xmlns:xlink="http://www.w3.org/1999/xlink" x="0px" y="0px"
	 viewBox="0 0 65.44 65.44" style="enable-background:new 0 0 65.44 65.44;" xml:space="preserve">
<g>
	<g id="group-3svg">
		<path id="path-1_21_" style="fill:#EDC951;" d="M65.44,34.88c0,16.616-13.472,30.086-30.089,30.086
			c-16.618,0-30.09-13.47-30.09-30.086S18.733,4.794,35.351,4.794C51.968,4.794,65.44,18.264,65.44,34.88z"/>
		<path id="path-2_21_" d="M45.647,23.775c0,2.01-1.63,3.639-3.64,3.639c-2.01,0-3.64-1.629-3.64-3.639s1.63-3.639,3.64-3.639
			C44.017,20.136,45.647,21.765,45.647,23.775z"/>
		<path id="path-3_21_" d="M24.717,23.775c0,2.01-1.629,3.639-3.639,3.639c-2.011,0-3.64-1.629-3.64-3.639s1.629-3.639,3.64-3.639
			C23.088,20.136,24.717,21.765,24.717,23.775z"/>
		<path id="path-4_21_" d="M19.207,50.977c-0.829,0-1.5-0.672-1.5-1.5c0-6.473,5.209-11.739,11.611-11.739h5.055
			c6.403,0,11.611,5.237,11.611,11.674c0,0.829-0.671,1.5-1.5,1.5c-0.829,0-1.5-0.671-1.5-1.5c0-4.783-3.863-8.674-8.611-8.674
			h-5.055c-4.748,0-8.611,3.92-8.611,8.739C20.707,50.305,20.036,50.977,19.207,50.977z"/>
		<path id="path-5_21_" d="M31.589,63.645C14.171,63.645,0,49.476,0,32.059C0,14.643,14.171,0.474,31.589,0.474
			c17.419,0,31.59,14.169,31.59,31.585C63.179,49.476,49.008,63.645,31.589,63.645z M31.589,3.474C15.825,3.474,3,16.297,3,32.059
			c0,15.763,12.825,28.587,28.589,28.587c15.765,0,28.59-12.824,28.59-28.587C60.179,16.297,47.354,3.474,31.589,3.474z"/>
	</g>
</g>
<g>
</g>
<g>
</g>
<g>
</g>
<g>
</g>
<g>
</g>
<g>
</g>
<g>
</g>
<g>
</g>
<g>
</g>
<g>
</g>
<g>
</g>
<g>
</g>
<g>
</g>
<g>
</g>
<g>
</g>
</svg>
