<svg width="1407" height="1407" viewBox="0 0 1407 1407" fill="none" xmlns="http://www.w3.org/2000/svg">
<path d="M687.979 1190.7C543.707 1190.7 405.344 1139.66 303.328 1048.81C201.312 957.963 144 834.746 144 706.267C144 577.788 201.312 454.571 303.328 363.723C405.343 272.874 543.707 221.836 687.979 221.836L687.979 706.267L687.979 1190.7Z" fill="#2E7435"/>
<path d="M687.047 916.278C576.51 915.19 470.862 877.526 393.343 811.571C315.823 745.616 272.783 656.773 273.691 564.588C274.599 472.402 319.38 384.424 398.182 320.008C476.985 255.592 583.355 220.015 693.891 221.103L690.469 568.691L687.047 916.278Z" fill="white"/>
<path d="M687.979 839.135C687.979 1150.98 688.094 508.527 688.094 785.943C1048.89 785.943 985.196 785.943 1262 785.943C1262 474.094 999.255 221.836 688.094 221.836C688.094 616.275 687.979 527.286 687.979 839.135Z" fill="#EAC216"/>
<path d="M657.963 782.983C486.028 782.983 840.24 783.047 687.289 783.047C687.289 982.662 687.289 947.425 687.289 1100.57C859.224 1100.57 998.058 955.139 998.058 782.983C780.589 782.983 829.897 782.983 657.963 782.983Z" fill="#AD0724"/>
<circle r="63.3033" transform="matrix(-1 0 0 1 546.351 501.874)" fill="black"/>
</svg>
