<svg width="17" height="11" viewBox="0 0 17 11" fill="none" xmlns="http://www.w3.org/2000/svg">
<path d="M14.7026 4.84014C15.2004 4.48364 15.5301 3.89062 15.5301 3.22219C15.5301 2.1287 14.6622 1.24431 13.5892 1.24431C12.5162 1.24431 11.6484 2.1287 11.6484 3.22219C11.6484 3.89062 11.9747 4.48364 12.4759 4.84014C12.0487 4.99096 11.6585 5.22406 11.3288 5.52571C10.8748 5.13151 10.3399 4.82985 9.75465 4.65161C10.4644 4.21284 10.942 3.41415 10.942 2.50577C10.942 1.12091 9.8421 0 8.48318 0C7.12426 0 6.02434 1.12434 6.02434 2.50577C6.02434 3.41415 6.49861 4.21284 7.21171 4.65161C6.63316 4.82985 6.10507 5.12808 5.65433 5.51543C5.32469 5.22063 4.94123 4.99096 4.52078 4.84357C5.0186 4.48707 5.34824 3.89405 5.34824 3.22562C5.34824 2.13213 4.48041 1.24774 3.4074 1.24774C2.33439 1.24774 1.46656 2.13213 1.46656 3.22562C1.46656 3.89405 1.79284 4.48707 2.29402 4.84357C0.958647 5.31318 0 6.60548 0 8.12403V8.35027C0 8.35712 0.00672734 8.36398 0.0134547 8.36398H4.12723C4.10368 8.55251 4.09023 8.7479 4.09023 8.94328V9.17638C4.09023 10.1842 4.89078 11 5.8797 11H11.0934C12.0823 11 12.8829 10.1842 12.8829 9.17638V8.94328C12.8829 8.7479 12.8694 8.55251 12.8459 8.36398H16.9865C16.9933 8.36398 17 8.35712 17 8.35027V8.12403C16.9933 6.60206 16.038 5.30975 14.7026 4.84014ZM12.1866 3.21876C12.1866 2.43035 12.8156 1.78934 13.5892 1.78934C14.3629 1.78934 14.9919 2.43035 14.9919 3.21876C14.9919 3.99688 14.3763 4.63104 13.6161 4.64818C13.6061 4.64818 13.5993 4.64818 13.5892 4.64818C13.5791 4.64818 13.5724 4.64818 13.5623 4.64818C12.7988 4.63447 12.1866 4.00031 12.1866 3.21876ZM6.5558 2.50577C6.5558 1.42599 7.4169 0.548458 8.47645 0.548458C9.53601 0.548458 10.3971 1.42599 10.3971 2.50577C10.3971 3.54783 9.59319 4.40137 8.58746 4.45965C8.55046 4.45965 8.51345 4.45965 8.47645 4.45965C8.43945 4.45965 8.40245 4.45965 8.36545 4.45965C7.35971 4.40137 6.5558 3.54783 6.5558 2.50577ZM1.99466 3.21876C1.99466 2.43035 2.62366 1.78934 3.39731 1.78934C4.17095 1.78934 4.79996 2.43035 4.79996 3.21876C4.79996 3.99688 4.18441 4.63104 3.42422 4.64818C3.41413 4.64818 3.4074 4.64818 3.39731 4.64818C3.38722 4.64818 3.38049 4.64818 3.3704 4.64818C2.61021 4.63447 1.99466 4.00031 1.99466 3.21876ZM4.22141 7.81209H0.544915C0.69628 6.35182 1.9072 5.20692 3.37713 5.19664C3.38385 5.19664 3.39058 5.19664 3.39731 5.19664C3.40404 5.19664 3.41076 5.19664 3.41749 5.19664C4.11713 5.20006 4.75623 5.46401 5.25069 5.89249C4.76632 6.42724 4.40641 7.08539 4.22141 7.81209ZM12.3379 9.17638C12.3379 9.87909 11.7762 10.4515 11.0867 10.4515H5.87297C5.18342 10.4515 4.62169 9.87909 4.62169 9.17638V8.94328C4.62169 6.81458 6.29007 5.07323 8.36545 5.01153C8.40245 5.01496 8.44282 5.01496 8.47982 5.01496C8.51682 5.01496 8.55718 5.01496 8.59418 5.01153C10.6696 5.07323 12.3379 6.81458 12.3379 8.94328V9.17638ZM12.7382 7.81209C12.5532 7.08881 12.2 6.44095 11.719 5.9062C12.2169 5.46744 12.8627 5.20349 13.5691 5.19664C13.5758 5.19664 13.5825 5.19664 13.5892 5.19664C13.596 5.19664 13.6027 5.19664 13.6094 5.19664C15.0793 5.20692 16.2903 6.35182 16.4416 7.81209H12.7382Z" fill="black"/>
</svg>
